<?xml version="1.0" encoding="UTF-8" standalone="no"?>
<svg
   viewBox="0 0 48 48"
   width="96px"
   height="96px"
   version="1.1"
   id="svg1453"
   sodipodi:docname="martell.svg"
   inkscape:version="1.2.2 (b0a8486541, 2022-12-01)"
   xmlns:inkscape="http://www.inkscape.org/namespaces/inkscape"
   xmlns:sodipodi="http://sodipodi.sourceforge.net/DTD/sodipodi-0.dtd"
   xmlns="http://www.w3.org/2000/svg"
   xmlns:svg="http://www.w3.org/2000/svg">
  <defs
     id="defs1457" />
  <sodipodi:namedview
     id="namedview1455"
     pagecolor="#ffffff"
     bordercolor="#000000"
     borderopacity="0.25"
     inkscape:showpageshadow="2"
     inkscape:pageopacity="0.0"
     inkscape:pagecheckerboard="0"
     inkscape:deskcolor="#d1d1d1"
     showgrid="false"
     inkscape:zoom="8.7291667"
     inkscape:cx="47.713604"
     inkscape:cy="48"
     inkscape:window-width="1920"
     inkscape:window-height="1017"
     inkscape:window-x="0"
     inkscape:window-y="0"
     inkscape:window-maximized="1"
     inkscape:current-layer="svg1453" />
  <path
     fill="#3F51B5"
     d="M43.8,31.4c-0.1-0.2-0.1-0.3-0.2-0.6c-0.1-0.2-0.3-0.4-0.4-0.7c-0.2-0.3-0.4-0.5-0.7-0.8c-0.3-0.2-0.6-0.5-1-0.7c-0.4-0.2-0.8-0.4-1.2-0.5c-0.4-0.1-0.8-0.3-1.2-0.4c-0.4-0.1-0.8-0.2-1.1-0.3c-0.3-0.1-0.7-0.2-0.9-0.3c-0.3-0.1-0.4-0.2-0.5-0.3c0,0,0-0.1-0.1-0.1c0-0.1,0.1-0.2,0.1-0.3c0,0,0.1,0,0.1,0c0-0.1,0-0.1-0.1-0.2c0.1-0.8,0.2-1.6,0.2-2.4c0-0.6-0.1-1.3-0.2-1.9c0.4-0.2,0.7-0.5,1-0.8c0.3-0.3,0.7-0.7,0.9-1.1c0.3-0.4,0.4-0.7,0.6-1c0.2-0.3,0.3-0.6,0.5-0.9c0.2-0.3,0.3-0.6,0.5-0.8c0.2-0.2,0.3-0.5,0.5-0.7c0.2-0.2,0.4-0.4,0.6-0.5c0.2-0.1,0.5-0.3,0.7-0.3c0.2-0.1,0.5-0.1,0.7-0.2c0.2,0,0.4-0.1,0.6-0.1c0.3,0,0.5-0.1,0.5-0.1s-0.2-0.1-0.5-0.2c-0.1-0.1-0.3-0.2-0.6-0.2C42.6,15.1,42.3,15,42,15c-0.3-0.1-0.6-0.1-1-0.1c-0.4,0-0.8,0-1.2,0.2c-0.4,0.1-0.8,0.3-1.2,0.4c-0.4,0.2-0.8,0.4-1.1,0.6c-0.3,0.2-0.7,0.4-1,0.6c-0.3,0.2-0.6,0.3-0.8,0.4c-0.2,0.1-0.4,0.1-0.6,0.1c0.2-0.3,0.4-0.6,0.6-1c0.2-0.4,0.3-0.9,0.4-1.3c0.1-0.4,0.1-0.8,0.2-1.2c0-0.3,0.1-0.7,0.1-1.1c0-0.3,0.1-0.6,0.1-0.9c0-0.3,0.1-0.6,0.2-0.8c0.1-0.3,0.2-0.5,0.4-0.7c0.2-0.2,0.3-0.4,0.5-0.6c0.2-0.2,0.4-0.3,0.5-0.4c0.2-0.1,0.3-0.2,0.5-0.3C38.9,8.7,39,8.6,39,8.6s-0.2,0-0.5,0c-0.2,0-0.4,0-0.6,0c-0.2,0-0.5,0.1-0.8,0.1c-0.3,0.1-0.6,0.2-1,0.3c-0.3,0.2-0.7,0.3-1,0.6c-0.3,0.3-0.7,0.5-0.9,0.9c-0.3,0.3-0.6,0.7-0.8,1c-0.2,0.3-0.5,0.6-0.7,0.9c-0.2,0.3-0.4,0.5-0.6,0.7c-0.2,0.2-0.3,0.3-0.5,0.4c0.1-0.4,0.1-0.7,0.2-1.1c0-0.5,0-1-0.1-1.4c-0.1-0.4-0.2-0.8-0.3-1.2c-0.1-0.3-0.2-0.7-0.3-1c-0.1-0.3-0.2-0.6-0.3-0.9c-0.1-0.3-0.1-0.6-0.1-0.8c0-0.3,0-0.5,0-0.8c0.1-0.2,0.1-0.5,0.2-0.7c0.1-0.2,0.2-0.4,0.3-0.6c0.1-0.2,0.2-0.3,0.3-0.4C31.8,4.1,31.9,4,31.9,4s-0.2,0.1-0.5,0.2c-0.2,0.1-0.3,0.1-0.6,0.2c-0.2,0.1-0.4,0.3-0.7,0.4c-0.3,0.2-0.5,0.4-0.8,0.7c-0.2,0.3-0.5,0.6-0.7,1c-0.2,0.4-0.4,0.8-0.5,1.2C28,8,27.9,8.4,27.8,8.8c-0.1,0.4-0.2,0.8-0.3,1.1c-0.1,0.3-0.2,0.7-0.3,0.9c-0.1,0.3-0.2,0.4-0.3,0.5c0,0-0.1,0-0.1,0.1c-0.1,0-0.2-0.1-0.3-0.1c0,0,0-0.1,0-0.1c-0.1,0-0.1,0-0.2,0.1c-0.8-0.1-1.6-0.2-2.4-0.2c-0.6,0-1.3,0.1-1.9,0.2c-0.2-0.4-0.5-0.7-0.8-1c-0.3-0.3-0.7-0.7-1.1-0.9c-0.4-0.3-0.7-0.4-1-0.6c-0.3-0.2-0.6-0.3-0.9-0.5c-0.3-0.2-0.6-0.3-0.8-0.5c-0.2-0.2-0.5-0.3-0.7-0.5c-0.2-0.2-0.4-0.4-0.5-0.6C16.2,6.4,16,6.2,16,5.9c-0.1-0.2-0.1-0.5-0.2-0.7c0-0.2-0.1-0.4-0.1-0.6c0-0.3-0.1-0.5-0.1-0.5s-0.1,0.2-0.2,0.5c-0.1,0.1-0.2,0.3-0.2,0.6C15.1,5.4,15,5.7,15,6c-0.1,0.3-0.1,0.6-0.1,1c0,0.4,0,0.8,0.2,1.2c0.1,0.4,0.3,0.8,0.4,1.2c0.2,0.4,0.4,0.8,0.6,1.1c0.2,0.3,0.4,0.7,0.6,1c0.2,0.3,0.3,0.6,0.4,0.8c0.1,0.2,0.1,0.4,0.1,0.6c-0.3-0.2-0.6-0.4-1-0.6c-0.4-0.2-0.9-0.3-1.3-0.4c-0.4-0.1-0.8-0.1-1.2-0.2c-0.3,0-0.7-0.1-1.1-0.1c-0.3,0-0.6-0.1-0.9-0.1c-0.3,0-0.6-0.1-0.8-0.2c-0.3-0.1-0.5-0.2-0.7-0.4c-0.2-0.2-0.4-0.3-0.6-0.5c-0.2-0.2-0.3-0.4-0.4-0.5C9,9.7,8.9,9.5,8.9,9.4C8.7,9.1,8.6,9,8.6,9s0,0.2,0,0.5c0,0.2,0,0.4,0,0.6c0,0.2,0.1,0.5,0.1,0.8c0.1,0.3,0.2,0.6,0.3,1c0.2,0.3,0.3,0.7,0.6,1c0.3,0.3,0.5,0.7,0.9,0.9c0.3,0.3,0.7,0.6,1,0.8c0.3,0.2,0.6,0.5,0.9,0.7c0.3,0.2,0.5,0.4,0.7,0.6c0.2,0.2,0.3,0.3,0.4,0.5c-0.4-0.1-0.7-0.1-1.1-0.2c-0.5,0-1,0-1.4,0.1c-0.4,0.1-0.8,0.2-1.2,0.3c-0.3,0.1-0.7,0.2-1,0.3c-0.3,0.1-0.6,0.2-0.9,0.3c-0.3,0.1-0.6,0.1-0.8,0.1c-0.3,0-0.5,0-0.8,0c-0.2-0.1-0.5-0.1-0.7-0.2c-0.2-0.1-0.4-0.2-0.6-0.3c-0.2-0.1-0.3-0.2-0.4-0.3C4.1,16.2,4,16.1,4,16.1s0.1,0.2,0.2,0.5c0.1,0.2,0.1,0.3,0.2,0.6c0.1,0.2,0.3,0.4,0.4,0.7c0.2,0.3,0.4,0.5,0.7,0.8c0.3,0.2,0.6,0.5,1,0.7c0.4,0.2,0.8,0.4,1.2,0.5C8,20,8.4,20.1,8.8,20.2c0.4,0.1,0.8,0.2,1.1,0.3c0.3,0.1,0.7,0.2,0.9,0.3c0.3,0.1,0.4,0.2,0.5,0.3c0,0,0,0.1,0.1,0.1c0,0.1-0.1,0.2-0.1,0.3c0,0-0.1,0-0.1,0c0,0.1,0,0.1,0.1,0.2c-0.1,0.8-0.2,1.6-0.2,2.4c0,0.6,0.1,1.3,0.2,1.9c-0.4,0.2-0.7,0.5-1,0.8c-0.3,0.3-0.7,0.7-0.9,1.1c-0.3,0.4-0.4,0.7-0.6,1c-0.2,0.3-0.3,0.6-0.5,0.9c-0.2,0.3-0.3,0.6-0.5,0.8c-0.2,0.2-0.3,0.5-0.5,0.7c-0.2,0.2-0.4,0.4-0.6,0.5C6.4,31.8,6.2,32,5.9,32c-0.2,0.1-0.5,0.1-0.7,0.2c-0.2,0-0.4,0.1-0.6,0.1c-0.3,0-0.5,0.1-0.5,0.1s0.2,0.1,0.5,0.2c0.1,0.1,0.3,0.2,0.6,0.2C5.4,32.9,5.7,33,6,33c0.3,0.1,0.6,0.1,1,0.1c0.4,0,0.8,0,1.2-0.2c0.4-0.1,0.8-0.3,1.2-0.4c0.4-0.2,0.8-0.4,1.1-0.6c0.3-0.2,0.7-0.4,1-0.6c0.3-0.2,0.6-0.3,0.8-0.4c0.2-0.1,0.4-0.1,0.6-0.1c-0.2,0.3-0.4,0.6-0.6,1c-0.2,0.4-0.3,0.9-0.4,1.3c-0.1,0.4-0.1,0.8-0.2,1.2c0,0.3-0.1,0.7-0.1,1.1c0,0.3-0.1,0.6-0.1,0.9c0,0.3-0.1,0.6-0.2,0.8c-0.1,0.3-0.2,0.5-0.4,0.7c-0.2,0.2-0.3,0.4-0.5,0.6c-0.2,0.2-0.4,0.3-0.5,0.4c-0.2,0.1-0.3,0.2-0.5,0.3C9.1,39.3,9,39.4,9,39.4s0.2,0,0.5,0c0.2,0,0.4,0,0.6,0c0.2,0,0.5-0.1,0.8-0.1c0.3-0.1,0.6-0.2,1-0.3c0.3-0.2,0.7-0.3,1-0.6c0.3-0.3,0.7-0.5,0.9-0.9c0.3-0.3,0.6-0.7,0.8-1c0.2-0.3,0.5-0.6,0.7-0.9c0.2-0.3,0.4-0.5,0.6-0.7c0.2-0.2,0.3-0.3,0.5-0.4c-0.1,0.4-0.1,0.7-0.2,1.1c0,0.5,0,1,0.1,1.4c0.1,0.4,0.2,0.8,0.3,1.2c0.1,0.3,0.2,0.7,0.3,1c0.1,0.3,0.2,0.6,0.3,0.9c0.1,0.3,0.1,0.6,0.1,0.8c0,0.3,0,0.5,0,0.8c-0.1,0.2-0.1,0.5-0.2,0.7c-0.1,0.2-0.2,0.4-0.3,0.6c-0.1,0.2-0.2,0.3-0.3,0.5c-0.2,0.3-0.3,0.4-0.3,0.4s0.2-0.1,0.5-0.2c0.2-0.1,0.3-0.1,0.6-0.2c0.2-0.1,0.4-0.3,0.7-0.4c0.3-0.2,0.5-0.4,0.8-0.7c0.2-0.3,0.5-0.6,0.7-1c0.2-0.4,0.4-0.8,0.5-1.2c0.1-0.4,0.3-0.8,0.4-1.2c0.1-0.4,0.2-0.8,0.3-1.1c0.1-0.3,0.2-0.7,0.3-0.9c0.1-0.3,0.2-0.4,0.3-0.5c0,0,0.1,0,0.1-0.1c0.1,0,0.2,0.1,0.3,0.1c0,0,0,0.1,0,0.1c0.1,0,0.1,0,0.2-0.1c0.8,0.1,1.6,0.2,2.4,0.2c0.6,0,1.3-0.1,1.9-0.2c0.2,0.4,0.5,0.7,0.8,1c0.3,0.3,0.7,0.7,1.1,0.9c0.4,0.3,0.7,0.4,1,0.6c0.3,0.2,0.6,0.3,0.9,0.5c0.3,0.2,0.6,0.3,0.8,0.5c0.2,0.2,0.5,0.3,0.7,0.5c0.2,0.2,0.4,0.4,0.5,0.6c0.1,0.2,0.3,0.5,0.3,0.7c0.1,0.2,0.1,0.5,0.2,0.7c0,0.2,0.1,0.4,0.1,0.6c0,0.3,0.1,0.5,0.1,0.5s0.1-0.2,0.2-0.5c0.1-0.1,0.2-0.3,0.2-0.6c0.1-0.2,0.1-0.5,0.2-0.8c0.1-0.3,0.1-0.6,0.1-1c0-0.4,0-0.8-0.2-1.2c-0.1-0.4-0.3-0.8-0.4-1.2c-0.2-0.4-0.4-0.8-0.6-1.1c-0.2-0.3-0.4-0.7-0.6-1c-0.2-0.3-0.3-0.6-0.4-0.8c-0.1-0.2-0.1-0.4-0.1-0.6c0.3,0.2,0.6,0.4,1,0.6c0.4,0.2,0.9,0.3,1.3,0.4c0.4,0.1,0.8,0.1,1.2,0.2c0.3,0,0.7,0.1,1.1,0.1c0.3,0,0.6,0.1,0.9,0.1c0.3,0,0.6,0.1,0.8,0.2c0.3,0.1,0.5,0.2,0.7,0.4c0.2,0.2,0.4,0.3,0.6,0.5c0.2,0.2,0.3,0.4,0.4,0.5c0.1,0.2,0.2,0.3,0.3,0.5c0.2,0.3,0.2,0.4,0.2,0.4s0-0.2,0-0.5c0-0.2,0-0.4,0-0.6c0-0.2-0.1-0.5-0.1-0.8c-0.1-0.3-0.2-0.6-0.3-1c-0.2-0.3-0.3-0.7-0.6-1c-0.3-0.3-0.5-0.7-0.9-0.9c-0.3-0.3-0.7-0.6-1-0.8c-0.3-0.2-0.6-0.5-0.9-0.7c-0.3-0.2-0.5-0.4-0.7-0.6c-0.2-0.2-0.3-0.3-0.4-0.5c0.4,0.1,0.7,0.1,1.1,0.2c0.5,0,1,0,1.4-0.1c0.4-0.1,0.8-0.2,1.2-0.3c0.3-0.1,0.7-0.2,1-0.3c0.3-0.1,0.6-0.2,0.9-0.3c0.3-0.1,0.6-0.1,0.8-0.1c0.3,0,0.5,0,0.8,0c0.2,0.1,0.5,0.1,0.7,0.2c0.2,0.1,0.4,0.2,0.6,0.3c0.2,0.1,0.3,0.2,0.4,0.3c0.3,0.2,0.4,0.3,0.4,0.3S43.9,31.7,43.8,31.4z"
     id="path1447"
     style="fill:#aa4400" />
  <path
     fill="#9FA8DA"
     d="M46 24L37 20 29.4 20 37.7 11.7 42 11 43 5 37 6 36.3 10.3 28 18.6 28 11 24 2 20 11 20 20 11 20 2 24 11 28 18.6 28 7.3 39.3 8.7 40.7 20 29.4 20 37 24 46 28 37 28 28 37 28z"
     id="path1449"
     style="fill:#ff7f2a" />
  <path
     fill="#C5CAE9"
     d="M24 17A7 7 0 1 0 24 31A7 7 0 1 0 24 17Z"
     id="path1451"
     style="fill:#ffccaa" />
</svg>
